<?xml version="1.0" encoding="utf-8"?>
<!-- Generator: Adobe Illustrator 27.2.0, SVG Export Plug-In . SVG Version: 6.00 Build 0)  -->
<svg version="1.1" xmlns="http://www.w3.org/2000/svg" xmlns:xlink="http://www.w3.org/1999/xlink" x="0px" y="0px"
	 viewBox="0 0 386.54 80.06" style="enable-background:new 0 0 386.54 80.06;" xml:space="preserve">
<style type="text/css">
	.st0{display:none;fill:#010101;}
	.st1{fill:#FFDC00;}
	.st2{fill:#009B4E;}
	.st3{fill:#2F612F;}
</style>
<g id="_x2014_ëîé_x5F_1">
	<path class="st0" d="M-311.08-10.33c-18-4.81-43.2,13.74-46.06,15.89c-1.53-0.84-3.06-1.68-4.58-2.54
		c-12.81-7.26-28.44-18.22-43.93-17.34c-13.6,0.77-25.4,10.52-22.55,25.19c2.73,14.07,18.33,20.5,30.32,14.86
		c4.31,0.96,8.94,0.85,12.48-0.1c10.13-2.73,18.78-9.78,27.29-16.03c3.04,1.54,7.77,3.83,13.72,6.22
		c17.16,6.91,28.16,11.16,37.65,6.63c1.84-0.88,7.7-4.03,9.74-10.58c2.6-8.38-3.14-15.6-3.4-15.92
		C-304-8.44-308.83-9.73-311.08-10.33z M-397.42,12.17c0.06,0.02,0.73,0.17,1.12-0.19c0.42-0.38,0.26-1.07,0.25-1.56
		c-0.04-1.73,1.62-3.91,3.38-4.13c1.4-0.17,2.82,0.91,3.5,2.06c1.3,2.23,0.07,5-0.67,6.65c-1.78,4-4.98,6.29-6.98,7.45
		c-1.78-0.49-3.5-1.2-5.05-2.16c-1.27-0.79-3.77-2.38-4.58-5.17c-0.15-0.51-1.09-3.75,0.89-5.57c1.65-1.51,4.6-1.39,5.94-0.12
		C-398.6,10.37-398.61,11.88-397.42,12.17z M-367.48,12.91c-6.44,4.2-14.05,9.45-21.9,10.2c-1.4,0.13-2.82,0.11-4.23-0.05
		c0.05-0.04,0.1-0.07,0.15-0.11c4.35-3.55,10.93-13.48,5.07-18.46c-4.51-3.83-8.31-0.95-9.83,3.15c-1.64-1.64-3.83-2.55-6.44-1.88
		c-4.5,1.16-6.54,5.77-5.44,10.04c1.02,3.93,3.91,6.64,7.53,8.34c-6.45,0.9-12.73-1.31-17.08-6.57c-3.39-4.09-4.79-9.42-3.56-14.61
		c1.69-7.11,7.6-10.67,14.36-11.88c10.91-1.95,21.09,3.3,30.58,8.04c5.89,2.94,11.66,6.1,17.51,9.11
		C-362.97,9.84-365.2,11.42-367.48,12.91z M-308.11,18.34c-7.04,4.24-15.75,1.19-28.34-3.26c-6.23-2.2-12.2-5.01-18.03-8.09
		c0.44-0.3,0.87-0.61,1.31-0.91c10.01-6.77,22.49-13.88,34.9-13.64c6.94,0.14,16.48,5.38,17.54,12.59
		C-299.96,10.19-303.71,15.69-308.11,18.34z"/>
	<path class="st0" d="M-156.39,14.93c-4.4-3.69-9.76-6.23-15.38-7.82c2.83-3.68,5.19-7.61,6.93-11.77
		c3.74-8.94,0.43-19.54-10.1-21.1c-6.48-0.96-11.97,2.67-14.96,7.91c-3.7-6.6-12.12-10.1-19.23-4.34
		c-11.95,9.69,0.91,26.99,9.76,33.53c0.63,0.47,1.47-0.61,0.84-1.09c-6.79-5.31-16.88-17.07-12-26.24
		c1.87-3.51,7.65-5.91,11.82-4.45c0.28,0.1,3.94,1.44,5.23,4.73c0.92,2.33,0.11,4.27,1.5,5.22c0.86,0.58,2.2,0.55,2.93-0.07
		c0.88-0.74,0.42-1.92,0.67-3.62c0.49-3.43,3.41-6.14,5.95-7.38c0.61-0.3,2.12-0.98,4.15-1.04c7.67-0.25,12.34,6.65,10.68,13.78
		c-1.23,5.29-4.44,10.39-8.31,14.96c-3.12-0.46-5.37-0.52-6.81-0.5c-1.01,0.01-2.57,0.08-2.77,0.72c-0.04,0.13-0.03,0.3,0.04,0.44
		c0.28,0.52,1.36,0.43,1.69,0.41c0.97-0.05,2.72,0.08,6.18,0.82c-2.44,2.64-5.4,5.49-8.9,8.41c-3.03,2.52-6.25,4.83-9.61,6.89
		c-1.99-1.06-3.96-2.17-5.92-3.31c-10.55-6.15-21.41-13.57-33.81-15.15c-8.97-1.14-19.55,1.36-23.12,10.76
		c-3.33,8.76,3.14,17.44,11.07,20.71c10.03,4.13,22.59,2.01,32.69-0.87c6.08-1.73,12.38-4.32,18.43-7.63
		c5.53,2.85,11.22,5.33,17.28,7.11c7.79,2.29,18.56,5.48,25.48-0.58C-147.4,28.58-150.55,19.82-156.39,14.93z M-213.34,32.02
		c-4.19,1.5-18.92,6.31-31.93,1.81c-1.85-0.64-4.12-1.63-6.23-3.66c-1.01-0.97-5.13-4.95-4.57-10.72c0.49-5.07,4.25-8.05,5.15-8.72
		c1.27-0.94,4.39-2.89,11.29-2.57c6.1,0.28,11.79,2.18,31.9,13.53c3.02,1.71,5.52,3.14,7.23,4.14
		C-205.65,29-210.19,30.89-213.34,32.02z M-159.77,33.14c-6.98,1.97-15.84-1.26-22.45-3.6c-3.47-1.23-6.82-2.69-10.1-4.31
		c7.16-4.45,13.79-9.93,19.05-16.25c3.28,0.91,6.46,2.14,9.5,3.78c3.41,1.85,6.97,4.04,8.92,7.52
		C-151.92,25.56-153.9,31.48-159.77,33.14z"/>
	<path id="_x33_" class="st0" d="M249.27-115.77c-6.47-7.13-22.42-5.76-32.9,0.32c-2.8,1.62-5.45,3.53-7.93,5.65
		c-1.4-0.45-2.79-0.92-4.18-1.4c1.16-1.31,2.28-2.58,3.35-3.76c9.95-10.98,27.93-30.61,18.24-46.66
		c-5.38-8.91-16.37-12.1-25.83-7.93c-6.11,2.69-9.91,8.03-11.22,14.09c-3.35-6.68-8.88-11.97-17.19-11.6
		c-9.18,0.41-15.75,10.02-16.34,18.57c-0.92,13.46,12.96,23.18,23.2,29.06c6.39,3.67,13.16,6.81,20.1,9.55
		c-0.99,1.12-2,2.26-3.04,3.4c-1.1-0.4-2.72-0.95-4.7-1.52c-8.58-2.48-24.36-7.03-32.84,0.21c-0.59,0.5-5.3,4.65-4.79,10.19
		c0.41,4.46,3.96,7.26,5,8c4.19,3,9.06,2.51,12.15,2.14c13.36-1.56,23.57-12.24,27.05-16.19c0.65,0.19,3.27,1,3.92,1.21
		c-2.8,3.5-5.18,7.34-6.98,11.41c-0.2,0.46,0.43,0.86,0.69,0.41c2.28-3.9,5.11-7.7,8.36-11.12c3.49,1.19,6.91,2.49,10.19,3.94
		c0.52,0.23,0.97-0.53,0.45-0.76c-3.21-1.42-6.39-2.87-9.58-4.26c1.23-1.23,2.52-2.4,3.85-3.51c4.52,1.47,9.84,3.09,15.88,4.73
		c4.4,1.19,9.41,2.46,15.44,1.8c1.46-0.16,2.37-0.37,3.24-0.67c4.3-1.48,8.91-5.61,8.75-10.12
		C251.53-113.22,249.86-115.12,249.27-115.77z M187.98-117.85c-9.92-4.67-21.31-10.62-27.22-20.28c-3.81-6.23-3.51-13.41,0.6-19.55
		c1.49-2.22,3.41-3.76,5.54-4.64c4.71-1.97,10.63-0.38,13.94,2.81c0.74,0.71,4.93,4.76,6.02,8.7c0.12,0.44,0.5,1.93,1.62,2.38
		c0.67,0.27,1.52,0.14,2.1-0.29c1.18-0.88,0.93-2.85,0.95-4.1c0.12-5.25,5.43-9.29,6-9.72c5.01-3.71,11.04-2.57,11.72-2.43
		c5.19,1.07,9.81,5.02,11.72,9.72c5.24,12.9-10.18,31.14-17.1,39.34c-1.23,1.46-2.3,2.64-3.05,3.45
		C196.46-114.07,192.18-115.87,187.98-117.85z M162.08-105.92c5.1-4.3,12.8-3,20.44-1.72c4.94,0.83,8.86,2.07,11.32,2.96
		c-3.7,4.15-9.8,9.53-18.47,11.91c-3.64,1-9.69,2.66-13.86-0.57c-0.65-0.5-2.89-2.39-3.14-5.29
		C158.02-102.5,161.49-105.43,162.08-105.92z M202.39-103.74c-1.17-0.5-2.35-0.99-3.53-1.47c1.06-1.14,2.09-2.28,3.09-3.4
		c1.23,0.46,2.47,0.91,3.72,1.35C204.52-106.13,203.43-104.96,202.39-103.74z M240.1-103.68c-1.62,0.49-3.01,0.44-5.64,0.16
		c-4.04-0.43-8.06-1.39-12.01-2.34c-3.65-0.88-7.28-1.88-10.88-2.97c2.98-2.43,7.09-5.06,12.39-6.67
		c7.22-2.18,18.89-3.15,21.73,1.86c1.16,2.04,0.5,4.46,0.43,4.72C245.11-105.39,241.14-104,240.1-103.68z"/>
	<path class="st0" d="M-24.24-121.08c-9.02-7.88-22.01-4.34-30.65,2.08c-2.41,1.79-4.6,3.78-6.63,5.92
		c-2.83-2.09-5.61-4.28-8.38-6.47c6.22-2.61,12.25-5.63,18.13-8.91c5.25-2.93,11.56-5.98,15.07-11.12
		c6.79-9.97-1.06-21.91-11.77-24.12c-9.49-1.96-19.59,2.41-24.61,10.38c-2.26-6.62-7.07-12.41-14.06-14.25
		c-9.64-2.53-19.29,4.01-22.92,12.8c-1.84,4.46-2.39,8.86-1.98,13.17c-1.1-0.11-2.22-0.19-3.36-0.22
		c-8.59-0.22-19.88,4.17-20.11,14.24c-0.3,12.76,14.27,16.54,24.31,16.7c5.25,0.09,10.45-0.32,15.58-1.14
		c11.21,11.15,19.49,19.25,21.15,20.71c0.42,0.36,1.25,1.04,1.93,0.8c0.65-0.23,0.85-1.18,0.93-1.51c0.88-3.72,4.96-10.6,7.86-14.01
		c0.64-0.75,1.69-1.89,3.23-3.12c2.67,2.4,6.95,5.16,12.37,7.95c7.18,3.69,17.16,7.16,24.4,1.67
		C-16.65-104.92-18.01-115.63-24.24-121.08z M-94.11-164.09c10.67-2.04,17.72,8.47,18.22,17.88c0.12,2.23,3.77,3.04,4.14,0.56
		c2.24-14.75,27.04-21.86,33.17-5.99c3.2,8.28-3.4,13.41-9.72,17.21c-6.31,3.79-12.85,7.26-19.57,10.28
		c-1.68,0.75-3.38,1.48-5.09,2.18c-10.74-8.49-21.63-16.6-35.18-19.08C-109.25-150.81-104.75-162.05-94.11-164.09z M-94.5-115.58
		c-5.66-6.38-10.97-13.51-13-21.86c11.57,1.79,21.92,8.79,31.88,16.51C-81.73-118.6-88.06-116.72-94.5-115.58z M-109.23-114.38
		c-7.17-0.18-16.7-1.16-20.7-8.09c-4.61-8.01,3.18-13.55,10.2-14.82c2.83-0.51,5.58-0.67,8.27-0.54
		c1.82,8.13,6.88,15.86,13.09,22.87C-101.97-114.51-105.6-114.29-109.23-114.38z M-73.48-94.13c-6.39-5.93-12.49-12.15-18.39-18.57
		c6.6-1.32,13.06-3.3,19.36-5.79c3.11,2.46,6.2,4.94,9.27,7.31C-67.57-106.15-70.96-100.34-73.48-94.13z M-41.31-101.58
		c-6.24-2.27-11.94-5.65-17.41-9.48c4.29-4.29,9.38-7.65,15.2-9.31c8.05-2.3,20.03,0.08,20.73,10.33
		C-22.05-99.23-33.9-98.88-41.31-101.58z"/>
	<path class="st0" d="M91.94-126.98c-5.05,0.19-8.72,1.56-13.87,3.51c-2.79,1.06-6.52,2.64-10.78,4.97
		c-7.24-4.95-14.16-10.46-20.46-16.56c-5.15-4.98-11.56-12.17-12.06-21.72c-0.1-1.93-0.23-5.23,1.52-8.79
		c0.22-0.46,4.5-8.82,13.29-9.03c4.95-0.12,9.85,2.38,12.29,6.22c0.69,1.08,2.09,3.29,2.16,6.26c0.06,2.99-1.26,5.42-0.06,6.47
		c0.43,0.37,1.07,0.52,1.57,0.38c1.03-0.29,1.34-1.73,1.91-3.24c0,0,0.72-1.94,2.81-5.05c0.61-0.91,2.29-3.41,5.16-4.82
		c2.74-1.35,6.72-1.78,9.79-0.1c4.15,2.27,6.11,8.11,5.38,12.83c-1.73,11.23-11.53,19.13-20.97,24.17c-0.9,0.48-0.11,1.75,0.78,1.34
		c12.48-5.67,29.93-20.01,22.84-35.9c-2.84-6.36-10.02-8.98-16.58-7.38c-4.11,1-7.49,3.58-10,6.89c-1.58-4.67-5.21-8.63-10.17-10.48
		c-9.68-3.6-20.18,2.41-23.81,11.61c-5.57,14.14,9.57,30.63,10.39,31.49c4.11,4.26,13.05,11.27,14.83,12.66
		c2.61,2.05,4.81,3.68,6.29,4.76c-1.06,0.54-2.13,1.08-3.19,1.62c-5.55-4.93-10.91-7.44-14.44-8.77
		c-4.74-1.78-14.78-5.54-22.58-0.94c-1.19,0.7-3.89,2.34-5.15,5.61c-1.91,4.94,1.01,9.55,1.24,9.91c2.43,3.72,6.42,4.77,8.58,5.34
		c7,1.84,13.46-0.47,23-4.02c3.49-1.3,6.26-2.54,7.99-3.35c0.56,0.43,1.47,1.16,2.51,2.17c1.82,1.76,7.22,7.01,7.67,14.34
		c0.09,1.42,0.18,3.34-0.76,5.53c-1.37,3.17-4,4.77-5.05,5.32c0,0-6.37,3.36-13.94-0.89c-0.37-0.21-0.75-0.38-1.11-0.61
		c-0.66-0.43-0.9-0.71-1.25-0.64c-0.27,0.06-0.53,0.31-0.54,0.56c-0.02,0.27,0.25,0.49,0.35,0.57c8.2,6.74,16.61,3.43,16.61,3.43
		c1.1-0.43,3.86-1.56,5.97-4.41c1.71-2.31,2.15-4.59,2.38-5.91c1.12-6.27-1.68-11.46-2.82-13.58c-1.02-1.89-2.91-4.83-6.27-7.65
		c1.22-0.58,2.44-1.16,3.67-1.74c4.56,3,8.6,5.01,11.52,6.3c5.99,2.65,9.74,4.26,14.95,4.19c2.12-0.03,7.17-0.17,11.24-3.53
		c2.17-1.79,2.97-3.6,3.14-4c1.32-3.09,0.6-5.93,0.38-6.67c-1.24-4.31-5.07-6.31-6.48-7.05C98.36-127.19,95.13-127.1,91.94-126.98z
		 M49.63-109.73c-7.13,2.54-17.83,6.36-24.68,1.62c-0.65-0.45-4.14-2.86-4.1-6.29c0.03-2.76,2.33-4.71,2.99-5.27
		c2.98-2.53,6.69-2.59,8.75-2.6c10.33-0.02,21.68,7.43,24.5,9.35C55.43-112.09,52.87-110.89,49.63-109.73z M104.14-111.26
		c-1.54,2.81-4.77,3.57-6.77,4c-5.27,1.15-9.7-0.44-14.5-2.23c-3.19-1.19-7.74-3.22-12.75-6.72c5.65-3.17,10.63-4.82,14.08-5.73
		c7.06-1.85,10.26-1.26,11.27-1.04c1.62,0.35,7.69,1.66,9.16,6.25C104.71-116.47,105.53-113.79,104.14-111.26z"/>
	<path class="st0" d="M-178.58-118.94c-13.44-5.79-28.67-1-41.57,3.85c-0.32,0.12-0.64,0.24-0.96,0.37c-0.4-0.44-0.8-0.88-1.2-1.32
		c-9-9.98-23.91-21.44-23.6-36.15c0.18-8.54,6.76-15.12,15.41-14.75c9.38,0.4,14.72,9.6,12.18,18.17c-0.59,2,2.41,2.77,3.09,0.85
		c2.41-6.75,5.7-14.88,13.28-17.04c8-2.28,15.87,2.98,17.26,11.08c2.62,15.24-20.18,25.99-31.49,30.59
		c-0.92,0.37-0.57,1.85,0.42,1.52c14.63-4.84,44.22-18.24,33.26-38.71c-3.97-7.42-12.53-10.92-20.63-8.73
		c-6.57,1.78-10.12,6.63-12.48,12.27c-1.64-5.95-5.97-11.09-12.28-12.68c-9.93-2.52-19.71,4.61-21.23,14.46
		c-1.95,12.56,7.03,22.65,15.02,31.04c3.29,3.46,6.48,7.1,9.77,10.67c-2.54,1.01-5.2,2.1-7.93,3.15c-1.86-2.31-3.67-4.66-5.48-7
		c-6.09-7.87-13.81-16.89-24.66-17.05c-8.26-0.12-14.7,5.62-15.87,13.73c-1.26,8.79,4.57,15.55,12.91,17.52
		c11.11,2.62,21.65-0.02,32.1-3.74c4.28,5.3,8.04,9.51,10.91,12.61c0.34,0.36,6.17,6.57,8.44,5.75c0.19-0.07,0.78-0.28,0.85-0.7
		c0.11-0.62-1.01-1.28-1.33-1.48c-3.59-2.21-10.55-9.89-13.77-14.15c-0.45-0.6-1.24-1.68-2.16-3.11c1.37-0.52,6.85-2.61,8.22-3.13
		c5.44,5.74,11.24,11.09,18.23,14.84c9.47,5.08,23.29,7.33,31.98-0.69C-163.44-104.69-169.77-115.14-178.58-118.94z M-267.02-107.44
		c-7.4-3.67-9.78-13.78-3.4-19.76c8.62-8.08,20.54,1.17,26.45,7.73c3,3.33,5.85,6.83,8.74,10.27
		C-245.87-105.35-257.38-102.66-267.02-107.44z M-189.38-95.83c-12.17-0.61-21.41-8.06-29.44-16.45c8.68-3.18,17.45-5.77,26.57-5.4
		c6.8,0.28,17.22,2.48,19.64,10.08C-169.75-98.67-183.23-95.52-189.38-95.83z"/>
	<path class="st0" d="M-322.54-144.32c-0.1-0.02-0.21-0.03-0.31-0.04c0.29-3.94-0.23-7.93-1.92-11.83
		c-3.67-8.47-12.34-15.19-21.91-13.92c-7.75,1.03-14.05,6.43-15.86,13.68c-4.6-7.14-12.65-11.8-21.46-10.41
		c-10.12,1.6-17.96,10.17-17.95,20.53c0.02,12.69,10.73,19.05,20.82,24.19c2.58,1.31,5.24,2.55,7.97,3.7
		c-1.4,1.04-2.81,2.05-4.25,3.02c-3.4-2.01-17.88-10.35-29.69-11.56c-4.93-0.51-7.84,0.39-9.83,1.7c-0.8,0.52-3.92,2.58-4.79,6.15
		c-0.02,0.07-0.03,0.13-0.04,0.16c-1.07,4.81,1.48,8.87,2.1,9.79c3.53,5.24,10.11,6.17,13.55,6.65c14.01,1.96,25.71-6.8,29.34-9.76
		c12.4,6.58,15.59,7.4,16.07,6.83c0.53-0.64,0.36-1.07,0.36-1.07c-0.14-0.34-0.63-0.44-0.74-0.46c-0.8-0.18-4.6-2.02-13.59-6.76
		c0.86-0.57,1.73-1.17,2.62-1.81c0.73-0.52,1.43-1.04,2.1-1.56c7.94,3.05,16.32,5.19,24.69,5.68c-3.85,5.05-7.31,10.31-9.23,16.35
		c-6.37-6.34-14.72-9.23-24.09-8.27c-0.48,0.05-0.49,0.72,0,0.75c9.34,0.62,17.9,5.62,23.29,13.25c1.03,1.45,3.62,1.48,4.08-0.53
		c1.9-8.38,6.25-15.01,11.06-21.46c10.29-0.23,23.43-2.97,28.95-12.14C-305.13-133.56-312.29-142.41-322.54-144.32z M-417.61-114.61
		c-0.51-2.37-0.16-5.77,1.83-7.79c5.56-5.63,21.61,1.65,27.63,4.38c3.56,1.61,6.35,3.2,8.14,4.28c-2.82,2.5-8.53,6.78-16.72,8.01
		c-3.14,0.47-10.44,1.57-16.29-2.67C-414.34-109.35-416.89-111.28-417.61-114.61z M-398.96-147.95c0.73-8.75,8.23-15.75,16.96-16.3
		c8.52-0.53,15.95,4.85,18.97,12.66c0.55,1.43,2.6,1.24,2.7-0.37c0.72-11.15,13.96-17.93,23.53-12.43
		c7.19,4.14,10.43,11.84,10.05,19.63c-10.64-0.3-20.62,5.56-28.74,12.05c-4.89,3.91-9.74,8.12-14.78,12.06
		C-382.74-125.16-400.21-132.95-398.96-147.95z M-366.92-119.46c0.38-0.3,0.75-0.6,1.12-0.9c10.55-8.55,21.06-19.82,35.44-20.96
		c0.99-0.08,2.08-0.08,3.22-0.02c-0.17,0.93-0.38,1.86-0.65,2.77c-2.65,8.78-8.53,15.87-14.24,23.04
		C-350.45-115.24-358.89-116.72-366.92-119.46z M-329.5-117.35c-2.37,0.63-4.75,1.09-7.15,1.39c2.26-2.96,4.51-5.96,6.58-9.15
		c3.11-4.8,5.66-10.18,6.74-15.74c5.25,1.1,10.2,4.03,10,9.89C-313.6-122.72-322.83-119.12-329.5-117.35z"/>
	<path class="st0" d="M-319.34,134.66c-8.75-2.28-18.11-0.56-44.55,11.32c-22.31,10.02-32.46,16.35-42.16,12.32
		c-1.28-0.53-5.44-2.33-8-6.67c-2.48-4.19-3.36-10.58-0.19-15.06c2.09-2.95,5.16-3.98,7.62-4.76c9.62-3.08,19.51,0.8,27.32,3.86
		c3.56,1.39,3.93,1.57,3.93,1.57c3.18,1.5,5.49,3.16,6.15,2.54c0.11-0.11,0.26-0.36,0.21-0.61c-0.08-0.4-0.66-0.6-0.79-0.64
		c-1.32-0.48-8.13-5.23-11.79-9.36c-4.12-4.64-4.34-8.56-4.09-10.01c0.01-0.08,0.03-0.16,0.03-0.16c0.17-0.86,0.91-3.98,3.63-5.06
		c1.67-0.66,3.73-0.42,5.11,0.58c1.31,0.95,2.74,3.1,3.22,5.32c0.12,0.58,0.27,1.57,0.96,1.89c0.42,0.19,1,0.13,1.32-0.18
		c0.53-0.51,0.26-1.58,0.18-1.97c-0.55-2.68,1.09-7.2,3.95-9.06c0.28-0.18,2.28-1.45,4.78-0.96c0.3,0.06,1.68,0.35,2.95,1.47
		c2.03,1.8,2.78,4.9,2.38,7.43c-0.45,2.84-2.74,7.63-3.36,8.46c-0.06,0.09-0.34,0.44-0.23,0.69c0.07,0.15,0.26,0.23,0.42,0.23
		c0,0,0.31,0.01,0.64-0.38c0.54-0.64,6.48-10.19,2.34-17c-0.87-1.43-1.79-2.1-2.19-2.36c-2.09-1.37-4.39-1.1-5.06-1.03
		c-3.42,0.39-6.52,3.36-8.09,7.52c-1.39-2.72-3.55-4.92-6.85-5.37c-4.69-0.65-8.54,3.03-9.67,7.34c-1.33,5.06,1.3,9.36,4.8,12.78
		c0.94,0.91,1.92,1.79,2.92,2.65c-0.93-0.33-1.87-0.65-2.81-0.96c-6.99-2.24-15.23-4.72-22.64-3.42
		c-13.07,2.29-19.58,17.91-11.13,28.52c11.34,14.25,31.25,3.98,44.09-1.81c9.69-4.37,19.3-9.05,29.15-13.04
		c9.56-3.88,21.63-7.16,30.74-0.38c4.58,3.41,7.47,9.61,5.17,15.18c-2.22,5.4-8.24,7.82-13.74,8.07
		c-11.29,0.51-22.91-6.23-33.26-9.99c-0.39-0.14-0.64,0.47-0.28,0.66c4.85,2.64,30.66,20.47,45.74,9.9
		c1.24-0.87,5.96-4.18,7.13-10.04c1.07-5.36-1.43-9.74-2.1-10.86C-309.21,137.41-316.32,135.44-319.34,134.66z"/>
	<path class="st0" d="M114.39,132.72c-5.21-8.57-19.02-9.93-27.85-8.53c-9.18,1.46-17.2,5.8-25.19,10.24
		c-1.05-0.61-2.08-1.24-3.08-1.88c-6.22-3.99-12.45-8.87-16.46-15.2c-1.63-2.57-3.66-6.39-3.33-9.55c0.56-5.35,5.09-8.27,9.99-6.85
		c4.43,1.28,6.15,5.17,6.97,9.3c0.32,1.59,2.91,1.6,3.22,0c0.71-3.69,2.08-7.61,5.07-10.11c4.54-3.8,10.01-1.08,11.87,3.99
		c3.08,8.43-3.94,15.67-9.4,21.16c-0.71,0.71,0.37,1.78,1.1,1.1c7.35-6.87,17.09-18.36,8.24-28.2c-7.29-8.11-15.61-0.99-18.85,6.81
		c-4.34-6.88-13.45-11.31-19.42-3.04c-5.15,7.12,1.14,16.68,6.12,21.9c4.51,4.73,9.76,8.65,15.35,12.03
		c-1.46,0.81-2.92,1.6-4.4,2.38c-2.82-2.26-5.74-4.2-8.38-5.77c-10.39-6.15-30.01-14.62-38.12-0.71c-2.64,4.53-2.07,10.2,1.92,13.75
		c4.66,4.14,11.88,4.46,17.76,4.12c9.54-0.55,17.74-3.84,25.73-7.79c4.4,3.6,8.78,8.25,10.45,13.51c-5.06,0.17-9.58,2.27-11.39,7.45
		c-1.35,3.89,1.5,7.43,5.39,8.03c4.69,0.73,8.19-3,9.25-7.28c0.47-1.89,0.58-3.73,0.43-5.53c2.68,0.19,5.33,1,7.68,2.3
		c1.38,0.77,9.1,5.47,8.62,13.04c-0.48,7.57-8.76,11.48-9.06,11.61c-0.42,0.18-0.77,0.32-0.77,0.32c-0.54,0.21-0.81,0.32-1.09,0.42
		c-0.69,0.24-0.9,0.25-0.95,0.43c-0.06,0.21,0.11,0.49,0.32,0.62c0.25,0.15,0.55,0.06,0.64,0.04c6.56-1.83,9.68-5.9,9.68-5.9
		c1.2-1.56,3.32-4.31,3.48-8.32c0.22-5.44-3.29-9.3-4.74-10.79c-3.04-3.1-8.67-5.67-14.22-6.31c-1.37-5.82-5.54-11.05-10.37-15.35
		c1.67-0.86,3.33-1.73,5.01-2.61c3.43,1.92,6.95,3.68,10.5,5.28c9.35,4.22,19.75,7.04,30.07,5.75
		C109.75,147.67,119.95,141.87,114.39,132.72z M64.06,162.81c-0.65,2.86-4.08,7.49-7.57,4.51c-4.2-3.59,1.83-7.28,4.27-8.27
		c1.14-0.46,2.33-0.76,3.53-0.92C64.48,159.66,64.42,161.22,64.06,162.81z M42.68,143.5c-7.48,2.58-16.92,4.53-24.75,2.44
		c-3.84-1.03-7.95-3.57-7.9-8.07c0.08-6.89,7.72-9.77,13.43-9.58c9.03,0.3,18.3,5.37,25.56,10.42c0.6,0.42,1.22,0.87,1.85,1.33
		C48.2,141.34,45.49,142.53,42.68,143.5z M111.38,139.44c-1.32,3.72-6,4.67-9.46,5.14c-12.6,1.71-26.17-2.37-37.55-8.45
		c3.75-1.93,7.56-3.8,11.56-5.39c8.54-3.4,17.59-4.79,26.43-1.71C106.46,130.46,113.39,133.77,111.38,139.44z"/>
	<path class="st0" d="M-32.65,106.76c-1.95,0.96-3.68,2.09-5.43,3.3c-1.75,1.21-3.44,2.49-5.13,3.79c-2.3-1.99-5.15-3.51-8.53-4.32
		c-6.29-1.52-14.06,0.96-18.16,6.05c-3.21,3.98-2.25,8.38,2.21,10.86c8.05,4.48,17.05-2.49,23.79-7.88
		c6.28,7.08,4.46,17.11-1.91,24.46c-9.49,10.95-25.93,16.54-31.5,30.05c-3.86-13.05-18.73-20.4-27.66-30.21
		c-6.4-7.03-11.32-19.4-2.72-26.83c8.91-7.7,21.34-2.38,26.07,7.11c0.24,0.49,1.05,0.15,0.88-0.37
		c-2.55-8.07-9.68-14.48-18.46-14.18c-8.56,0.29-15.99,6.89-17.13,15.36c-3.63,27.14,36.6,32.09,37.15,57.56
		c-0.1,1.77,2.62,1.75,2.75,0c0.06-0.78,0.06-1.54,0.05-2.29c1.33-18.8,27.42-23.87,36.48-38.42c5.03-8.07,4.37-17.97-1.03-24.59
		c3.46-3.02,11.15-9.06,19-9.05c3.46,0,4.56,1.18,4.91,1.61c1.78,2.2,0.82,6.01-0.97,7.63c-1.33,1.2-3.1,2.1-4.85,2.49
		c-3.99,0.89-9.02-0.21-12.67-2.04c-0.89-0.45-1.68,0.89-0.78,1.34c4.23,2.12,8.95,3.75,13.76,2.96c4.31-0.71,9.57-4.45,9.9-9.22
		c0.04-0.57,0.14-2.37-0.91-4.09c-1.46-2.42-4.18-3.1-5.64-3.46C-24.91,102.94-30.18,105.54-32.65,106.76z M-62.45,124.43
		c-2.59-0.38-5.69-2.24-5.94-4.45c-0.38-3.46,6.2-8.05,12.48-7.91c4.9,0.11,8.35,3.06,9.55,4.19c-0.13,0.1-0.89,0.68-1.07,0.81
		C-58.1,125.04-62.45,124.43-62.45,124.43z"/>
	<path class="st0" d="M252.68,125.18c-5.35-4.82-13.5-3.95-19.45-0.83c-7.18,3.77-12.41,10.38-18.4,15.72
		c-6.33-1.82-12.46-4.44-18.76-7.42c-9.47-4.47-20.46-10.39-31.28-9.54c-8.3,0.65-17.62,8.08-13.97,17.22
		c4.25,10.65,17.35,9.49,25.94,5.87c0.98-0.41,0.56-2.03-0.45-1.62c-4.67,1.89-10.05,3.49-15.09,2.13c-5.7-1.54-10.72-7.07-8.5-13.2
		c4.2-11.62,19.69-7.57,28.23-4.3c8.8,3.37,17.01,8.09,25.74,11.62c1.66,0.67,3.33,1.27,5.01,1.83c-1.78,1.39-3.65,2.68-5.62,3.79
		c-2.78-2.54-6.51-4.21-10.36-4.7c-3.33-0.43-8.08-0.5-10.68,2.09c-1.99,1.99-2.42,5.27-0.3,7.29c2.84,2.71,8.77,2.4,12.24,1.88
		c3.03-0.46,5.93-1.42,8.68-2.71c0.53,0.49,1.19,1.23,1.69,2.26c2.06,4.29-0.1,10.85-4.05,12.45c-1.81,0.73-5.43,0.99-7.31-0.07
		c-0.25-0.14-1.06-0.64-1.46-0.35c-0.29,0.21-0.33,0.79-0.15,1.21c0,0,0.16,0.4,0.59,0.64c6.69,3.72,14.89-1.06,15.65-8.52
		c0.35-3.43-0.59-6.47-2.34-8.96c1.35-0.77,2.67-1.61,3.93-2.52c1.08-0.78,2.16-1.66,3.23-2.6c6.12,1.71,12.4,2.65,18.85,2.59
		c6.5-0.06,15.63-0.15,20.24-5.63C258.49,136.07,257.01,129.09,252.68,125.18z M187.46,148c-0.48-1.07,0.08-2.17,0.12-2.24
		c1.19-2.24,5.63-1.86,7.12-1.74c1.8,0.15,5.31,0.76,9.19,3.69c-1.2,0.59-3.11,1.4-5.55,1.87C195.19,150.18,188.68,150.7,187.46,148
		z M251.86,136.49c-2.1,5.32-11.74,5.85-17.56,6.16c-6.01,0.33-11.37-0.47-15.82-1.64c0.74-0.76,17.07-17.41,26.52-15.34
		c3.63,0.8,5.4,2.99,5.4,2.99C252.12,130.78,252.83,134.04,251.86,136.49z"/>
	<path class="st0" d="M217.56,107.3c-1.15-0.01-3.43,0.2-5.51,1.73c-2.65,1.95-2.83,4.6-2.85,5.09c-0.24-0.29-0.58-0.68-1.07-1.07
		c0,0-0.84-0.69-1.88-1.13c-0.96-0.41-4.92-1.47-8.18,1.09c-0.25,0.2-2.68,2.16-3,5.31c-0.08,0.75-0.02,1.43,0.11,2.08
		c0,0,1.41,7.46,13.02,14.7c0.36,0.22,1.11,0.57,1.22,0.62c0.53,0.25,0.67,0.28,0.82,0.28c0.38,0.01,0.63-0.18,1.21-0.56
		c1.25-0.82,1.25-0.82,1.25-0.82c8.25-6.31,12-15.06,12-15.06c0.54-1.26,1.36-3.25,1-5.57c-0.11-0.68-0.3-1.88-1.08-3.11
		c-0.12-0.19-0.61-0.93-1.51-1.67C220.9,107.42,218.25,107.31,217.56,107.3z M220.51,113.08c3.2,3.94-3.03,13.51-3.41,14.09
		c-1.35,2.03-3.5,4.69-6.9,7.16c-2.44-1.37-4.26-2.8-5.5-3.91c-1.87-1.66-8.02-7.13-7.06-12.15c0.07-0.37,0.29-1.46,1.12-2.5
		c0.14-0.17,1.84-2.23,4.35-2.1c0.01,0,0.06,0,0.11,0.01c2.43,0.19,4.13,2.01,4.59,2.53c0.73,0.81,0.95,1.36,1.64,1.48
		c0.4,0.07,0.87-0.02,1.24-0.29c0.73-0.54,0.46-1.41,0.94-2.69c0.07-0.19,0.57-1.48,1.79-2.4c1.54-1.17,3.29-1.05,3.52-1.04
		C218.46,111.39,219.8,112.21,220.51,113.08z"/>
	<path class="st0" d="M-167.4,135.4c-14.45-4.52-28.32,2.35-40.53,9.88c-2.13-1.5-4.27-3-6.45-4.44c-1.15-0.76-2.43-1.57-3.79-2.37
		c2.66-1.44,17.95-9.95,19.29-21.46c0.17-1.48,0.55-4.76-1.46-7.48c-1.97-2.66-6.28-4.89-9.69-3.09c-1.64,0.86-2.78,2.36-3.62,4.05
		c-2.67-3.56-6.74-5.28-10.38-4.41c-3.07,0.73-4.72,3.03-5.13,3.61c-2.96,4.25-1.5,10.05,0.88,13.46c3.04,4.35,7.76,5.04,8.55,4.91
		c0.2-0.03,0.73-0.12,0.92-0.5c0.08-0.16,0.1-0.39,0-0.56c-0.07-0.12-0.18-0.19-0.69-0.34c-0.5-0.15-0.73-0.19-1.14-0.31
		c0,0-0.24-0.07-0.61-0.22c-5.22-2.02-6.59-6.91-6.59-6.91c-0.26-0.94-1.42-5.08,1.34-7.97c2.08-2.18,5.55-2.84,7.87-1.64
		c1.05,0.54,2.74,1.91,3.42,3.92c0.37,1.09,0.36,2.16,1.17,2.58c0.54,0.28,1.29,0.2,1.83-0.12c1.5-0.9,0.45-3.07,1.99-5.15
		c0.14-0.19,1.49-1.95,3.59-1.98c2.02-0.02,3.35,1.61,3.67,2c1.34,1.64,1.4,3.6,1.42,4.42c0.12,6.67-6.94,15.34-15.86,20.47
		c-1.21,0.7-2.24,1.2-2.93,1.53c-2.31-1.58-9.62-5.67-16.84-3.79c-7.68,2-4.3,10.59,2.66,10.3c4.28-0.18,8.67-1.41,12.75-3.35
		c2.71,1.61,5.33,3.39,7.88,5.21c0.83,0.59,1.67,1.2,2.53,1.82c-0.84,0.53-1.67,1.06-2.49,1.59c-9.45,6.06-19.78,12.14-31.32,12.52
		c-5.55,0.19-11.64-1.01-15.77-5c-4.11-3.97-5.21-12.23,1.15-14.86c1.57-0.65,0.93-3.24-0.72-2.61c-5.77,2.21-8.12,8.95-5.76,14.57
		c3.03,7.22,11.53,10.24,18.77,10.73c14.87,1.01,26.8-7.31,38.96-14.91c12.18,8.71,27.05,18.38,42.01,13.08
		c5.92-2.09,11.8-7.53,11.97-14.22C-154.39,141.44-161.68,137.19-167.4,135.4z M-229.83,141.35c-1.48,0.28-6.5,1.23-8.31-1.15
		c-0.15-0.19-0.56-0.75-0.52-1.47c0.07-1.22,1.44-2.36,3.48-2.9c1.32-0.08,2.6,0.21,3.88,0.51c2.33,0.55,4.64,1.36,6.75,2.49
		c0.19,0.1,0.37,0.21,0.55,0.31C-226.37,140.53-228.48,141.09-229.83,141.35z M-168.84,158.97c-6.19,1.75-12.79,0.23-18.68-1.91
		c-6.43-2.34-12.02-5.94-17.51-9.76c5.09-3.07,10.27-5.85,15.78-7.61c4.5-1.44,9.26-2.24,13.99-1.96
		c5.35,0.32,13.32,2.36,16.02,7.61C-156.03,151.57-163.76,157.53-168.84,158.97z"/>
	<path class="st1" d="M39.64,49.24c-12.4-9.46-21.2-34.81-15.65-37.74c6.55-3.46,12.28,9.25,12.28,9.25
		c0.83-3.02,4.86-12.75,10.5-11.8c8.28,1.39-0.59,15-0.59,15l-2.38,5.11c0.02,0.05,1.65,0.24,1.65,0.24
		c4.27-8.17,12.46-21.38,1.08-23.01c-6.17-0.88-9.18,6.32-10.02,8.79c-0.32,0.94-0.67-0.1-0.67-0.1S32.85,6.07,25.4,7.17
		c-15,2.21-0.2,41.06,21.47,51.76"/>
	<path id="_x31_" class="st0" d="M-41.88-34.97c-9.53-4.03-20.68,0.94-25.86,5.27c-0.93,0.78-2.01,1.83-1.87,2.43
		c0.06,0.24,0.43,0.87,0.99,0.94c0.37,0.05,0.64-0.16,1.33-0.72l0.48-0.38c0.21-0.17,0.43-0.34,0.64-0.52
		c0.08-0.07,7.79-6.71,17.6-4.96c0.11,0.02,10.92,2.05,15.06,12.01c2.74,6.58,0.95,12.76,0.05,15.12c-0.77,2.02-2.45,4.6-4.85,7.46
		c-2.73,3.25-5,5.05-7.62,7.14c-1.37,1.09-2.79,2.22-4.4,3.66c-12.4,11.09-16.15,16.08-18.74,21.43c-0.97,2.01-1.82,4.08-2.51,6.17
		c-2.58-5.2-5.74-9.79-9.38-13.65c-1.59-1.69-5.01-4.9-11.82-11.28c0,0-3.03-2.82-3.26-3.06c-7.1-7.11-15.15-15.17-14.68-25.44
		c0.08-1.66,0.82-10.2,8.02-15.18c0.69-0.48,6.98-4.63,14.42-2.71c4.57,1.18,7.41,4.1,11,7.81c2.05,2.11,3.88,4.45,5.45,6.95
		c-1.99,1.8-8.91,6.41-17.04,6.41c-0.39,0-0.78-0.01-1.17-0.03c-3.79-0.21-8.96-3.17-9.97-6.67c-0.57-1.99,0.36-3.91,2.69-5.55
		c6.17-4.34,13.18-0.74,17.68,4.08c0.31,0.33,0.71,0.26,0.95,0.05c0.27-0.23,0.39-0.68,0.09-1.04c-5.18-6.28-14.03-10.39-21.21-4.57
		c-2.17,1.76-3.22,3.98-3.04,6.42c0.22,3.13,2.44,6.31,5.78,8.3c8.46,5.05,19.64-0.57,24.05-3.21c0.88-0.53,1.84-1.17,3.02-2
		c2.79,3.09,5.51,5.25,8.58,6.78c7.42,3.72,17.96,4.2,23.58-3.52c0.63-0.86,1.68-2.66,1.73-5.03c0.04-2-0.66-3.96-2.06-5.81
		c-3.09-4.08-8.23-4.53-10.16-4.71c-4.33-0.39-7.66,0.93-9.26,1.56c-2.38,0.93-4.43,2.22-8.53,4.78c-0.97,0.61-1.93,1.22-2.85,1.84
		c-0.93-1.15-1.84-2.36-2.72-3.53c-2.3-3.06-4.68-6.23-7.75-8.69c-6.08-4.9-14.09-5.78-21.42-2.35
		c-7.85,3.67-13.02,11.39-13.17,19.67c-0.21,11.6,8.94,21.83,16.65,28.37l0.18,0.15c9.93,8.42,19.31,16.37,24.57,28.92
		c0.23,0.56,0.78,0.93,1.37,0.93c0.03,0,0.05,0,0.07,0c0.55-0.03,0.97-0.39,1.14-0.96c4.01-13.59,12.97-21.97,22.05-29
		c8.86-6.86,18.44-15.14,20.06-26.72C-26.61-21.17-32.47-30.98-41.88-34.97z M-67.21-16.35l0.2-0.15c2.35-2.15,10.7-9.04,19.19-7.76
		c2.87,0.43,6.48,1.91,7.82,3.89c1.13,1.67,1.29,3.41,1.29,3.43c0,0,0.07,0.66-0.02,1.29c-0.3,2.1-1.87,4.19-4.31,5.74
		c-6.18,3.93-14.22,1.31-19.68-2.46C-64.24-13.41-65.71-14.71-67.21-16.35z"/>
	<path class="st0" d="M238.28-1.5c-0.69-0.21-1.41-0.37-2.26-0.5c2.08-6.72,1.93-13.24-0.44-18.86c-3.8-9.04-12.71-14.48-22.7-13.86
		c-9.54,0.59-17.04,6.41-19.63,15.22c-4.37-5.56-11.49-8.03-18.65-6.46c-7.51,1.65-13.21,7.26-14.86,14.65
		c-1.43,6.4-0.35,12.18,3.32,17.68c-2.45,2.09-3.9,4.61-4.19,7.29c-0.29,2.64,0.63,4.69,0.97,5.46c1.71,3.83,5.04,5.6,6.46,6.36
		c4.55,2.42,9.03,2.06,11.43,1.86c2.03-0.17,4.03-0.58,5.97-1.22c4.32,4.04,9.41,9.63,10.68,17.08c0.05,0.32,0.31,0.61,0.67,0.76
		c0.15,0.06,0.31,0.09,0.46,0.09c0.2,0,0.39-0.06,0.54-0.17c9.02-6.61,12.58-18.57,8.47-28.48l0.41-0.28c1.37-0.96,2.77-2,4.25-3.1
		l0.55-0.41c3.1,3.02,6.42,5.44,9.88,7.2c-2.04,2.7-10.66,13.88-12.87,16.82c-0.19,0.25-0.14,0.58,0.12,0.8
		c0.24,0.2,0.62,0.26,0.88-0.02l0.43-0.46c4.72-5.12,9.6-10.42,14.14-15.91c4.9,1.95,9.67,2.4,14.19,1.33
		c2.88-0.68,9.74-2.89,11.24-8.59C249.39,6.5,244.18,0.32,238.28-1.5z M230.8,8.78c1.74-2.59,3.17-5.33,4.28-8.13
		c4.58,0.65,9.06,4.33,10.03,8.26c0.48,1.94,0.31,4.76-3.19,7.23c-3.04,2.15-7.46,3.32-11.79,3.12c-2.04-0.09-4.14-0.48-6.23-1.16
		C226.59,14.74,228.85,11.69,230.8,8.78z M203.4,0.77c-0.43,0-0.84,0.25-1.04,0.61c-0.18,0.32-0.17,0.69,0.04,1.03
		c1.47,2.45,3.25,4.83,5.28,7.08c0,0-3.48,2.39-4.56,3.12c-0.35-0.6-0.71-1.15-1.08-1.67c-3.71-5.2-9.6-8.68-16.58-9.81
		c-1.6-0.26-3.23-0.38-4.86-0.38c-5.04,0-10.1,1.21-14.39,3.5c-0.38,0.2-0.76,0.43-1.21,0.71c-0.57-1.04-1.04-2.05-1.44-3.08
		c-3.83-9.9-0.57-19.86,7.94-24.22c7.39-3.79,16.92-0.9,21.25,6.43c0.1,0.18,0.37,0.24,0.58,0.26c0.53,0.05,1.26-0.1,1.62-0.5
		c0.21-0.23,0.29-0.55,0.47-1.18c0.18-0.64,0.25-1.14,0.25-1.14c0.15-0.98,4.42-10.6,14.09-12.35c1.19-0.22,4.37-0.6,8.17,0.45
		c1.16,0.32,4.19,1.34,7.2,3.81c8.21,6.72,8.23,17.3,8.2,18.48c-0.04,1.99-0.35,3.98-0.91,5.9c-6.26,0.32-12.34,3.64-17.99,7.18
		c-1.83,1.15-3.62,2.35-5,3.28c-1.97-2.18-3.7-4.53-5.14-6.99C204.09,0.96,203.77,0.77,203.4,0.77z M202.49,16.82
		c0.68,1.71,1.13,3.52,1.34,5.39c0.76,6.76-2.18,13.91-7.66,18.71c-1.82-7.06-6.38-11.95-10.21-15.44
		C192.24,23.49,197.83,20,202.49,16.82z M180.6,3.94c11.12,0.21,18.38,7.59,20.47,10.04c-2.76,1.84-6.4,4.17-10.3,6.12
		c-2.8,1.4-5.13,2.41-7.33,3.18c-3.29-2.34-6.44-4.94-9.38-7.72c-2.61-2.48-5.1-5.14-7.38-7.92C169.71,5.87,174.57,3.84,180.6,3.94z
		 M164.38,20.8c-2.14-2.48-2.97-5.24-2.35-7.76c0.53-2.14,1.93-3.55,2.79-4.24c2.19,2.7,4.59,5.29,7.13,7.68
		c2.9,2.73,6.04,5.25,9.32,7.5c-3.04,0.97-6.22,1.18-9.21,0.6C169.81,24.13,166.74,23.54,164.38,20.8z M211.44,10.37
		c5.89-4.31,12.76-8.93,19.91-9.7c-1.87,4.42-4.55,8.45-7.98,13.13c-0.61,0.83-2.38,3.18-2.38,3.18
		C217.63,15.46,214.41,13.23,211.44,10.37z"/>
	<g>
		<path class="st1" d="M251.95,8.99c9.84,0,12.74,1.17,12.8,9.54c0,5.6-1.66,7.88-5.66,8.92c3.38,0.92,6.15,2.77,6.15,8.92
			c0,9.23-3.01,11.38-13.17,11.38h-0.62c-10.15,0-11.57,0.18-11.57,0.18s0.18-2.65,0.18-16.18v-0.62c0-18.46-0.43-21.53-0.43-21.53
			s4.61-0.62,11.69-0.62H251.95z M257.86,20.37c0-6.77-0.31-7.08-5.48-7.08c-4.06,0-5.48,0-6.09,0.62
			c-0.86,0.86-0.92,1.85-0.92,7.08c0,2.28,0.06,3.14,0.68,3.75s2.65,0.55,4.12,0.55C257.55,25.29,257.86,24.99,257.86,20.37z
			 M258.48,36.37c0-6.46,0-7.2-6.15-7.2c-3.69,0-4.74,0.06-5.35,0.68s-0.62,2.52-0.62,9.47c0,2.89,0.06,3.38,0.49,3.81
			c0.49,0.49,1.85,0.49,3.32,0.49C257.86,43.63,258.48,43.44,258.48,36.37z"/>
		<path class="st1" d="M275.95,32.37c-0.37,0.74-0.43,1.85-0.43,4.61c0,7.08,0.49,10.58,0.49,10.58c-0.55,0.18-5.48,0.49-7.01,0.18
			c0,0,0.31-6.77,0.31-16v-0.62C269.3,12.68,269,9.3,269,9.3s2.03-0.43,9.72-0.43h0.31c9.54,0,14.46,3.51,14.52,10.89
			c0,6.46-3.08,8.8-5.84,9.84c2.28,0.62,4.31,2.15,4.31,5.54c0,1.85-0.18,3.38-0.18,5.23c0,3.69,1.42,4.43,6.95,4.43
			c2.77,0,5.91-0.25,5.91-0.25c0.31,0.62,0.25,3.08,0,3.38c0,0-2.77,0.68-8.92,0.68c-7.38,0-9.91-1.29-9.91-6.4
			c0-2.46,0.18-4.31,0.18-5.54c0-1.35-0.12-2.58-0.62-3.51c-0.49-0.86-1.72-1.72-5.11-1.72C276.75,31.45,276.19,31.88,275.95,32.37z
			 M286.78,26.52c1.05-1.05,1.05-2.89,1.05-6.15c0-2.46-0.18-4.8-0.92-5.84c-0.62-0.92-1.97-1.23-6.58-1.23
			c-3.38,0-4.18,0.18-4.8,0.8c-0.86,0.86-0.92,3.81-0.92,9.04c0,2.15,0.12,3.2,0.92,4c0.49,0.49,1.42,0.8,3.26,0.8
			C282.9,27.94,285.67,27.63,286.78,26.52z"/>
		<path class="st1" d="M294.47,42.21c3.45-10.77,6.46-21.78,9.17-32.73c2.15-0.31,8-0.37,9.84-0.18
			c3.26,12.55,6.77,25.59,10.89,38.45c-1.85,0.12-7.57,0.12-8.24-0.31c0,0-1.54-7.2-2.77-10.89c-0.62-1.85-1.23-1.97-4.74-1.97
			h-0.31c-4.31,0-4.37,0.12-4.92,1.78c-0.98,2.95-1.72,6.15-1.72,6.15C300.44,42.7,295.7,42.52,294.47,42.21z M311.2,18.4
			c-0.86-3.08-1.23-3.88-2.15-3.88s-1.23,1.23-2.15,4.61l-1.97,7.38c-1.11,4.18-0.92,4.31,4,4.31h0.49c5.17,0,5.17-0.25,4.31-3.38
			L311.2,18.4z"/>
		<path class="st1" d="M338.64,16.86c0.37-0.86,0.62-1.54,0.62-2.03c0-1.23-0.8-2.15-13.1-2.15c-6.15,0-8.8,0.12-8.8,0.12
			c-0.31,0-0.74-2.58-0.18-3.81h3.69c14.15,0,23.81-0.55,24.42-0.55s1.42,3.32,1.29,5.35c-5.54,9.97-11.38,22.58-13.23,26.89
			c-0.37,0.86-0.43,1.35-0.43,1.72c0,1.35,1.23,2.15,12,2.15c5.54,0,10.34-0.25,10.34-0.25c0.31,0,0.68,3.38,0,4.06
			c-18.27-0.18-26.7,0.43-28.12,0.43c-0.74,0-1.72-3.63-1.42-5.66C330.77,33.6,336.79,21.17,338.64,16.86z"/>
		<path class="st1" d="M355.87,13.05c-1.42,0.31-5.78,0.43-6.58,0.12c-0.31-0.55-0.49-2.95-0.31-3.94c1.48-0.12,4.49-0.37,6.64-0.06
			C355.93,10.16,355.93,12.13,355.87,13.05z M355.19,41.9c-2.15,0.18-5.17,0-5.6-0.12c0,0,0.12-6.03,0.12-11.26
			c0-8.31-0.31-14.89-0.31-14.89c1.23-0.31,4.86-0.43,6.09-0.06L355.19,41.9z"/>
		<path class="st1" d="M366.69,8.68c0,0-0.68,14.46-0.68,25.84c0,2.77,0.06,5.04,0.43,6.15s1.05,1.54,4.61,1.54
			c3.38,0,7.26-0.31,7.26-0.31c0.12,0.49,0.18,5.04,0.06,5.84c-14.77,0-18.33,0.31-18.33,0.31s0.25-6.46,0.25-14.46
			c0-19.69-0.25-24.61-0.25-24.61C361.77,8.68,364.54,8.56,366.69,8.68z"/>
	</g>
	<g>
		<path class="st2" d="M66.3,20.08C66.24,9.74,70,8.82,77.62,8.82c8.12,0,11.26,0.31,11.32,7.38c0,1.54-0.31,3.26-0.31,3.26
			c-1.11,0.25-2.71,0.37-4.49,0.25c0-5.04-0.06-5.35-5.41-5.35c-6.4,0-6.46,0.18-6.46,7.08c0,4,0.18,4.61,5.41,4.61
			c10.46,0,11.69,0.31,11.69,10.77c0,10.95-4.06,11.38-11.63,11.38c-7.32,0-11.26-1.54-11.26-9.54c0-1.23,0.12-2.77,0.12-2.77
			c1.78-0.31,3.75-0.31,5.66-0.12c0,0-0.25,1.66-0.25,2.89c0,3.63,1.05,3.69,8.74,3.69c3.38,0,3.81-0.62,3.81-4.92
			c0-6.15-0.25-6.46-7.08-6.46C68.77,30.97,66.3,30.29,66.3,20.08z"/>
		<path class="st2" d="M93.62,48.32c0,0,0.06-5.66,0.06-13.97c0-17.23-0.49-24.12-0.49-24.12c0.74-0.43,6.03-0.68,7.01-0.49
			c3.63,7.88,9.11,17.96,13.41,25.96c0.43,0.8,0.68,1.17,1.29,1.17c0.43,0,0.55-0.12,0.62-0.98s0.12-4.61,0.12-7.69
			c0-4.31-0.55-13.35-0.55-13.35c0.8-0.06,3.57-0.18,5.41,0c0,0-0.37,7.2-0.37,19.2c0,6.77,0.31,13.54,0.31,13.54
			c-0.62,0.31-5.6,0.62-7.38,0.18c-3.69-7.88-8.43-16.49-12.74-25.1c-0.62-1.23-0.8-1.42-1.35-1.42c-0.37,0-0.68,0.18-0.68,0.98
			c0,15.81,0.49,25.96,0.49,25.96C98.3,48.32,94.67,48.44,93.62,48.32z"/>
		<path class="st2" d="M115.03,8.94c0,0,8.12-0.12,18.89-0.12c6.15,0,8.61,0.18,8.61,0.18c3.14,13.04,6.77,25.9,10.58,38.88
			c-1.85,0.12-5.23,0.12-7.08,0c0,0-1.6-7.51-3.14-12.12c-0.62-1.85-1.23-2.03-4.55-2.03h-0.37c-4.49,0-5.17,0.18-5.72,1.85
			c-1.23,3.69-3.2,12.18-3.2,12.18c-1.78,0.18-3.94,0.25-6.4,0.12c2.09-7.08,3.63-12.61,6.09-21.53s3.01-11.38,3.01-12.3
			s-0.62-1.17-3.38-1.42c-4.06-0.37-8-0.37-13.35-0.37C114.78,11.65,114.78,9.93,115.03,8.94z M139.33,17.92
			c-0.74-2.77-1.05-3.26-1.54-3.26c-0.62,0-0.98,1.05-1.66,3.38l-2.34,8.31c-0.98,3.57-0.74,3.69,3.57,3.69h0.31
			c4.61,0,4.74-0.31,3.88-3.69L139.33,17.92z"/>
		<path class="st2" d="M172.92,23.58c0-3.69-0.12-6.58-0.68-7.69c-0.62-1.17-2.15-1.54-5.35-1.54c-4.49,0-5.6,0.62-6.21,1.85
			c-0.55,1.17-0.86,5.54-0.86,14.46c0,6.46,0.12,10.46,0.74,11.69s1.85,1.54,4.49,1.54c4.43,0,5.23-0.31,5.84-1.54
			c0.55-1.11,0.62-4.31,0.31-9.54c1.72-0.31,5.23-0.31,6.46,0c0,13.84-2.4,15.69-11.32,15.69c-10.15,0-12.67-2.77-12.67-17.53
			c-0.06-18.46,3.63-21.84,13.47-21.84c8.31,0,11.07,1.23,11.44,14.15C177.97,23.58,174.77,23.77,172.92,23.58z"/>
		<path class="st2" d="M231,47.89c0,0-5.72,0.92-18.33,0.92c-12.3,0-14.77-0.92-14.83-6.77c0-2.77,0.37-6.15,0.37-9.54
			c0-4.31-1.48-7.08-4.06-7.08c-1.11,0-1.66,0.43-3.08,1.97l-1.54,1.66c-1.23,1.35-1.72,2.21-1.72,4.98
			c0,10.46,0.37,13.84,0.37,13.84c-1.23,0.43-4.37,0.62-6.15,0.31c0.12-4.61,0.43-13.23,0.43-19.69s-0.31-14.15-0.55-19.38
			c2.28-0.06,4.86-0.12,6.64,0.18c0,0-0.43,4.43-0.43,13.84c0,0.74,0.18,0.92,0.49,0.92s0.74-0.25,1.54-1.11l12.24-13.84
			c0.92-0.31,5.66,0,6.15,0.31l-9.35,9.54c-1.6,1.6-2.15,2.21-2.15,2.77c0,0.43,0.18,0.62,1.42,1.23c4.31,2.15,5.66,4.92,5.66,9.23
			c0,2.15-0.31,5.23-0.31,8.31c0,3.88,0.8,4.49,12.49,4.49c8.61,0,14.64-0.62,14.64-0.62C231.25,44.99,231.25,47.58,231,47.89z"/>
		<path class="st2" d="M229.96,31.27c0,8-3.69,10.46-10.58,10.46c-9.78,0-11.26-2.15-11.57-10.15c0.92-0.31,3.57-0.49,5.11-0.31
			c0,4.92,0.74,5.72,5.35,5.72c5.23,0,5.66-0.37,5.66-6.34c0-3.38-0.43-3.81-4.55-3.81c-8.61,0-11.26-1.11-11.26-8.49
			c-0.06-7.38,4.55-9.84,11.32-9.84c6.15,0,10.77,1.23,10.83,8.61c0,1.23-0.12,2.46-0.12,2.46c-1.11,0.31-4.61,0.31-5.78,0.12
			c0,0,0.25-1.35,0.25-2.58c0-3.08-0.8-4.12-4.18-4.12c-4.92,0-6.15,0.12-6.15,5.35c0,4.61,1.05,4.8,4.8,4.8
			C225.03,23.15,229.96,23.95,229.96,31.27z"/>
	</g>
	<g>
		<path class="st2" d="M139.94,67.2c0,1.83-1.43,3.1-4.55,3.1c-1.07,0-2.39-0.19-2.94-0.39v-9.81h3.54c2.08,0,3.03,1,3.03,2.42
			c0,0.95-0.57,1.79-1.4,2.11C138.94,64.89,139.94,65.85,139.94,67.2z M135.98,60.86h-2.72v3.54h3.03c1.23,0,1.92-0.8,1.92-1.79
			C138.21,61.63,137.61,60.86,135.98,60.86z M139.13,67.18c0-1.15-0.96-2.08-2.63-2.08h-3.24v4.18c0.47,0.16,1.43,0.25,2.2,0.25
			C138.16,69.53,139.13,68.49,139.13,67.18z"/>
		<path class="st2" d="M145.3,63.47v0.79c-0.25-0.15-0.63-0.23-1-0.23c-1.19,0-2.07,0.79-2.07,2.26v3.82h-0.8v-6.64h0.76v1.48
			c0.27-0.85,1.01-1.66,2.2-1.66C144.68,63.3,145.06,63.37,145.3,63.47z"/>
		<path class="st2" d="M152.33,69.41v0.63c-0.12,0.09-0.39,0.2-0.67,0.2c-0.51,0-0.88-0.28-0.88-0.95v-0.84
			c-0.12,0.36-0.32,0.69-0.6,0.97c-0.52,0.52-1.29,0.87-2.18,0.87c-1.2,0-2.06-0.68-2.06-1.76c0-0.48,0.16-0.85,0.44-1.15
			c0.48-0.51,1.34-0.71,2.18-0.85c0.77-0.15,1.55-0.31,1.91-0.67c0.15-0.16,0.24-0.37,0.24-0.63c0-0.73-0.52-1.23-1.86-1.23
			c-1,0-1.96,0.35-2.59,0.72v-0.75c0.56-0.32,1.58-0.68,2.6-0.68c1.8,0,2.59,0.76,2.59,1.99v3.74c0,0.33,0.16,0.52,0.44,0.52
			C152.07,69.55,152.23,69.49,152.33,69.41z M150.75,66.93V66.3c-0.03,0.04-0.05,0.08-0.08,0.11c-0.36,0.36-1.11,0.55-1.74,0.65
			c-0.83,0.15-1.5,0.31-1.86,0.69c-0.19,0.19-0.29,0.43-0.29,0.75c0,0.69,0.57,1.15,1.44,1.15c0.67,0,1.31-0.24,1.78-0.71
			C150.48,68.47,150.75,67.76,150.75,66.93z"/>
		<path class="st2" d="M158.14,69.4v0.71h-5.34v-0.13l4.06-5.79h-3.74v-0.71h4.97v0.12l-4.02,5.81H158.14z"/>
		<path class="st2" d="M159.25,61.34c0-0.37,0.24-0.57,0.57-0.57c0.36,0,0.59,0.2,0.59,0.57c0,0.35-0.23,0.55-0.59,0.55
			C159.49,61.88,159.25,61.68,159.25,61.34z M159.42,63.47h0.8v6.64h-0.8V63.47z"/>
		<path class="st2" d="M162.17,69.19v-9.09h0.8v8.99c0,0.33,0.15,0.51,0.47,0.51c0.17,0,0.36-0.03,0.48-0.13v0.65
			c-0.16,0.11-0.41,0.19-0.67,0.19C162.61,70.3,162.17,69.89,162.17,69.19z"/>
		<path class="st2" d="M165.12,61.34c0-0.37,0.24-0.57,0.57-0.57c0.36,0,0.59,0.2,0.59,0.57c0,0.35-0.23,0.55-0.59,0.55
			C165.36,61.88,165.12,61.68,165.12,61.34z M165.3,63.47h0.8v6.64h-0.8V63.47z"/>
		<path class="st2" d="M174.1,69.41v0.63c-0.12,0.09-0.39,0.2-0.67,0.2c-0.51,0-0.88-0.28-0.88-0.95v-0.84
			c-0.12,0.36-0.32,0.69-0.6,0.97c-0.52,0.52-1.29,0.87-2.18,0.87c-1.2,0-2.06-0.68-2.06-1.76c0-0.48,0.16-0.85,0.44-1.15
			c0.48-0.51,1.34-0.71,2.18-0.85c0.77-0.15,1.55-0.31,1.91-0.67c0.15-0.16,0.24-0.37,0.24-0.63c0-0.73-0.52-1.23-1.86-1.23
			c-1,0-1.96,0.35-2.59,0.72v-0.75c0.56-0.32,1.58-0.68,2.6-0.68c1.8,0,2.59,0.76,2.59,1.99v3.74c0,0.33,0.16,0.52,0.44,0.52
			C173.83,69.55,173.99,69.49,174.1,69.41z M172.51,66.93V66.3c-0.03,0.04-0.05,0.08-0.08,0.11c-0.36,0.36-1.11,0.55-1.74,0.65
			c-0.83,0.15-1.5,0.31-1.86,0.69c-0.19,0.19-0.29,0.43-0.29,0.75c0,0.69,0.57,1.15,1.44,1.15c0.67,0,1.31-0.24,1.78-0.71
			C172.24,68.47,172.51,67.76,172.51,66.93z"/>
		<path class="st2" d="M181.2,66.22v3.89h-0.8v-3.74c0-1.5-0.79-2.42-2.06-2.42c-1.31,0-2.23,1.04-2.23,2.64v3.51h-0.8v-6.64h0.76
			v1.58c0.31-0.96,1.19-1.75,2.47-1.75C180.13,63.3,181.2,64.39,181.2,66.22z"/>
		<path class="st2" d="M185.89,69.68v-0.79c0.45,0.33,1.33,0.65,2.24,0.65c1.74,0,2.64-0.91,2.64-2.04c0-0.87-0.56-1.54-1.6-2.07
			l-1.27-0.65c-1.09-0.56-1.83-1.25-1.83-2.35c0-1.44,1.29-2.48,3.3-2.48c0.73,0,1.47,0.19,1.79,0.37v0.79
			c-0.36-0.21-1.09-0.43-1.78-0.43c-1.51,0-2.46,0.73-2.46,1.75c0,0.79,0.55,1.25,1.39,1.7l1.27,0.65c1.28,0.65,1.99,1.52,1.99,2.71
			c0,1.54-1.16,2.8-3.41,2.8C187.25,70.3,186.35,70.01,185.89,69.68z"/>
		<path class="st2" d="M194.19,64.18v3.94c0,0.93,0.41,1.42,1.21,1.42c0.35,0,0.72-0.09,0.96-0.24v0.73
			c-0.27,0.16-0.69,0.27-1.08,0.27c-1.21,0-1.9-0.8-1.9-2.18v-3.94h-1.17v-0.71h1.17v-2.04h0.8v2.04h2.18v0.71H194.19z"/>
		<path class="st2" d="M201.47,63.47v0.79c-0.25-0.15-0.63-0.23-1-0.23c-1.19,0-2.07,0.79-2.07,2.26v3.82h-0.8v-6.64h0.76v1.48
			c0.27-0.85,1.01-1.66,2.2-1.66C200.85,63.3,201.23,63.37,201.47,63.47z"/>
		<path class="st2" d="M208,67.01h-5.42c0.09,1.71,1.07,2.58,2.76,2.58c0.99,0,1.84-0.29,2.38-0.65v0.72
			c-0.63,0.41-1.58,0.64-2.44,0.64c-2.19,0-3.47-1.31-3.47-3.55c0-2.08,1.38-3.45,3.23-3.45c1.88,0,3,1.31,3,3.23
			C208.04,66.69,208.02,66.85,208,67.01z M202.57,66.36h4.71c-0.04-1.44-0.79-2.39-2.27-2.39
			C203.68,63.97,202.71,64.84,202.57,66.36z"/>
		<path class="st2" d="M215.21,67.01h-5.42c0.09,1.71,1.07,2.58,2.76,2.58c0.99,0,1.84-0.29,2.38-0.65v0.72
			c-0.63,0.41-1.58,0.64-2.44,0.64c-2.19,0-3.47-1.31-3.47-3.55c0-2.08,1.38-3.45,3.23-3.45c1.88,0,3,1.31,3,3.23
			C215.25,66.69,215.23,66.85,215.21,67.01z M209.79,66.36h4.71c-0.04-1.44-0.79-2.39-2.27-2.39
			C210.89,63.97,209.92,64.84,209.79,66.36z"/>
		<path class="st2" d="M217.76,64.18v3.94c0,0.93,0.41,1.42,1.21,1.42c0.35,0,0.72-0.09,0.96-0.24v0.73
			c-0.27,0.16-0.69,0.27-1.08,0.27c-1.21,0-1.9-0.8-1.9-2.18v-3.94h-1.17v-0.71h1.17v-2.04h0.8v2.04h2.18v0.71H217.76z"/>
		<path class="st2" d="M225.17,60.86v3.5h4.03v0.76h-4.03v4.99h-0.81V60.09h5.11v0.76H225.17z"/>
		<path class="st2" d="M229.97,66.8c0-2.03,1.55-3.5,3.46-3.5c1.94,0,3.46,1.48,3.46,3.5c0,2.02-1.52,3.5-3.46,3.5
			C231.52,70.3,229.97,68.83,229.97,66.8z M236.11,66.8c0-1.66-1.15-2.79-2.68-2.79c-1.5,0-2.68,1.13-2.68,2.79
			c0,1.64,1.19,2.78,2.68,2.78C234.97,69.57,236.11,68.44,236.11,66.8z"/>
		<path class="st2" d="M237.9,66.8c0-2.03,1.55-3.5,3.46-3.5c1.94,0,3.46,1.48,3.46,3.5c0,2.02-1.52,3.5-3.46,3.5
			C239.45,70.3,237.9,68.83,237.9,66.8z M244.04,66.8c0-1.66-1.15-2.79-2.68-2.79c-1.5,0-2.68,1.13-2.68,2.79
			c0,1.64,1.19,2.78,2.68,2.78C242.9,69.57,244.04,68.44,244.04,66.8z"/>
		<path class="st2" d="M252.43,60.09v10.01h-0.76v-1.62c-0.47,1.15-1.44,1.8-2.64,1.8c-1.82,0-3.19-1.42-3.19-3.48
			c0-2.08,1.38-3.51,3.19-3.51c1.16,0,2.12,0.61,2.6,1.71v-4.91H252.43z M251.73,66.8c0-1.66-1.12-2.79-2.58-2.79
			s-2.55,1.08-2.55,2.8c0,1.7,1.09,2.76,2.55,2.76S251.73,68.45,251.73,66.8z"/>
	</g>
</g>
<g id="Layer_2">
	<path id="_x32__00000065773892666519820800000007872060320707148181_" class="st2" d="M48.13,19.81
		c-2.51,5.31-5.92,11.14-7.78,16.74c-2.4,7.24-3.92,22.88,10.62,22.74c12.31-0.11,14.61-8.93,13.46-16.9
		c-1.21-8.43-10.62-23.17-14.28-27.11 M41.34,42.1c0.4-4.78,2.45-8.98,6.49-17.4c0.36-0.76,2.38-4.53,2.76-5.28
		c2.86,3.96,6.21,10.66,8.48,16.84c1.26,3.44,4.12,11.85-0.53,16.98c-1.84,2.03-4.92,2.73-7.48,2.87c-4.19,0.23-6.57-2.23-7.13-2.82
		C40.53,49.73,41.15,44.43,41.34,42.1z"/>
	<path class="st3" d="M-146.72-78.33"/>
	<path class="st3" d="M-146.72-78.33"/>
	<path class="st3" d="M-101.39-133.6"/>
</g>
</svg>
